<svg xmlns="http://www.w3.org/2000/svg" viewBox="0 0 170 220" role="img" aria-label="Catcher">
  <defs>
    <linearGradient id="skin" x1="0" x2="1" y1="0" y2="1"><stop stop-color="#ffe4bd"/><stop offset="1" stop-color="#c97843"/></linearGradient>
    <linearGradient id="gear" x1="0" x2="0" y1="0" y2="1"><stop stop-color="#244c7a"/><stop offset="1" stop-color="#07182d"/></linearGradient>
    <linearGradient id="pants" x1="0" x2="0" y1="0" y2="1"><stop stop-color="#fff8e8"/><stop offset="1" stop-color="#d7cfbd"/></linearGradient>
    <filter id="drop" x="-40%" y="-30%" width="180%" height="170%"><feDropShadow dx="0" dy="10" stdDeviation="6" flood-color="#07182d" flood-opacity=".32"/></filter>
  </defs>
  <ellipse cx="86" cy="204" rx="62" ry="13" fill="#07182d" opacity=".28"/>
  <g filter="url(#drop)">
    <path d="M52 111c-22 12-35 28-39 47-3 13 12 21 22 10 8-9 14-28 31-37z" fill="url(#skin)"/>
    <path d="M118 111c19 10 31 24 38 41 5 13-8 25-20 17-9-6-17-25-32-36z" fill="url(#skin)"/>
    <path d="M56 91h58c15 0 27 12 27 27v48c0 15-12 27-27 27H56c-15 0-27-12-27-27v-48c0-15 12-27 27-27z" fill="url(#gear)" stroke="#fff8e5" stroke-width="6"/>
    <path d="M63 104h45v68H63z" fill="#fff8e5" opacity=".94"/>
    <path d="M63 121h45M63 142h45" stroke="#d93442" stroke-width="5" opacity=".74"/>
    <circle cx="86" cy="62" r="30" fill="url(#skin)" stroke="#fff8e5" stroke-width="5"/>
    <path d="M51 52c8-27 57-29 70 0v21H51z" fill="url(#gear)"/>
    <rect x="54" y="54" width="64" height="48" rx="10" fill="none" stroke="#fff8e5" stroke-width="7"/>
    <path d="M60 76h52M86 55v45" stroke="#07182d" stroke-width="5" opacity=".82"/>
    <ellipse cx="26" cy="155" rx="23" ry="26" fill="#8b471f"/>
    <path d="M55 188l-32 25" stroke="url(#pants)" stroke-width="19" stroke-linecap="round"/>
    <path d="M116 188l32 25" stroke="url(#pants)" stroke-width="19" stroke-linecap="round"/>
    <path d="M12 216h46M112 216h46" stroke="#173a67" stroke-width="8" stroke-linecap="round"/>
  </g>
</svg>
